<svg version="1.1" id="Layer_1" xmlns="http://www.w3.org/2000/svg" xmlns:xlink="http://www.w3.org/1999/xlink" x="0px" y="0px"
	 width="100%" viewBox="0 0 1024 1024" enable-background="new 0 0 1024 1024" xml:space="preserve">
<path fill="#000000" opacity="1.000000" stroke="none" 
	d="
M205.697281,757.728210 
	C201.399567,760.638123 197.476898,763.465210 193.383667,766.018860 
	C180.310883,774.174561 163.818771,770.999756 154.748154,758.494324 
	C148.380249,749.715027 142.568024,740.665283 140.399475,729.696106 
	C139.281418,724.040710 140.986481,719.554626 144.499344,715.482605 
	C146.577148,713.074097 149.222687,711.290649 151.945999,709.647095 
	C197.678574,682.047729 238.858795,648.697388 276.643585,611.040161 
	C307.223694,580.563354 335.984619,548.395691 364.666840,516.166382 
	C391.356628,486.175964 417.597900,455.732391 446.246643,427.610016 
	C480.472961,394.012543 513.968201,359.553741 551.421204,329.418640 
	C581.385925,305.308624 613.339783,284.297913 649.382690,270.207062 
	C671.434082,261.586151 694.350891,257.835876 718.071838,257.492493 
	C746.917542,257.074951 774.008301,263.253296 798.745056,277.850403 
	C834.562988,298.986542 857.480286,330.236328 866.146179,370.923492 
	C877.151184,422.593445 863.239258,468.202209 830.312988,508.775818 
	C812.559082,530.653259 791.006042,548.000244 767.587585,563.274536 
	C712.463196,599.228516 652.265076,623.108459 588.372681,637.911499 
	C569.622437,642.255676 550.527466,644.548462 531.196106,645.595154 
	C485.784760,648.053894 441.722015,641.854614 398.731476,627.348633 
	C395.641479,626.306030 392.389496,625.525085 389.182465,623.067261 
	C395.193359,616.149414 401.008545,609.389343 406.897705,602.694275 
	C416.467163,591.815308 426.156250,581.040466 435.634033,570.082581 
	C438.099701,567.231934 440.529449,566.183411 444.322296,567.133911 
	C475.444000,574.932800 507.203888,576.129395 538.969910,574.425171 
	C573.047729,572.596863 605.853882,564.049683 637.710693,551.924744 
	C663.412231,542.142639 688.867432,531.821716 712.289124,517.138916 
	C737.828125,501.128693 761.522461,483.038544 780.542114,459.251129 
	C794.462097,441.841888 801.494385,422.235077 800.569092,400.110107 
	C798.892151,360.012360 769.772766,332.662384 738.235229,328.148865 
	C711.086182,324.263428 685.685059,330.085938 661.139709,340.858246 
	C626.671265,355.985535 597.475891,378.946136 570.038574,404.171021 
	C532.001587,439.140808 495.632050,475.834534 460.566742,513.769104 
	C435.012390,541.414490 410.533539,570.051819 385.096466,597.808167 
	C353.809479,631.947876 322.671326,666.281616 287.644501,696.737000 
	C261.976013,719.055420 235.346481,740.128357 205.697281,757.728210 
z"/>
<path fill="#000000" opacity="1.000000" stroke="none" 
	d="
M486.600342,338.387085 
	C489.767029,341.121063 492.522705,343.827545 495.624329,346.051544 
	C498.727142,348.276459 498.266083,349.943817 495.809662,352.314667 
	C481.185028,366.429871 466.589050,380.576416 452.147705,394.878265 
	C449.315369,397.683258 447.795990,396.718475 445.234253,394.525085 
	C417.788330,371.025391 388.719727,349.978485 354.700317,336.826477 
	C338.167053,330.434692 320.988281,326.253296 303.195618,326.464569 
	C259.277008,326.986023 232.822174,353.671600 226.272324,393.116455 
	C221.814453,419.962891 230.643799,442.716888 248.023468,463.015289 
	C268.686279,487.148132 293.675873,505.679810 321.028076,521.348267 
	C323.192078,522.587891 325.298859,523.928711 327.408386,525.260315 
	C327.651917,525.414001 327.741821,525.811157 328.281647,526.763489 
	C323.309326,532.374817 318.199677,538.206970 313.017853,543.974243 
	C303.776703,554.259460 294.483765,564.498108 285.232605,574.774353 
	C283.461182,576.742065 281.930908,578.232300 278.935974,576.329651 
	C251.068146,558.625549 223.427032,540.717346 201.351196,515.554810 
	C178.160522,489.121613 162.500351,459.094757 157.884369,424.055145 
	C151.567795,376.106384 164.459641,333.866425 198.617142,299.237885 
	C219.272873,278.297302 245.079910,266.022278 273.944214,260.715485 
	C317.726868,252.665894 359.193359,260.459381 398.740662,280.106018 
	C430.352295,295.810333 459.953156,314.556335 486.600342,338.387085 
z"/>
<path fill="#000000" opacity="1.000000" stroke="none" 
	d="
M707.235107,618.165955 
	C717.421509,613.518250 727.349243,609.203247 737.083740,604.489319 
	C740.630859,602.771606 742.869202,603.015076 745.678040,605.968628 
	C761.983093,623.113770 778.793274,639.765991 797.502502,654.318848 
	C822.583252,673.827820 846.832642,694.490784 874.874146,709.922424 
	C884.632019,715.292297 887.971863,724.495850 884.317017,735.100098 
	C880.698181,745.599792 874.958069,755.007568 867.355286,763.091980 
	C859.671997,771.261780 845.325623,773.168213 835.558899,766.823547 
	C810.861755,750.779846 786.015320,734.950439 763.157043,716.225586 
	C732.832581,691.384705 704.024780,664.967834 677.598511,635.991028 
	C676.723694,635.031799 675.492493,634.302429 675.294556,632.179077 
	C685.712524,627.617554 696.306152,622.979126 707.235107,618.165955 
z"/>
<path fill="#000000" opacity="1.000000" stroke="none" 
	d="
M646.751892,496.258667 
	C653.660156,503.624634 660.319885,510.740112 667.705811,518.631470 
	C657.588257,522.777527 648.589844,526.571472 639.510376,530.160461 
	C626.204895,535.419922 612.711853,540.120300 598.854675,543.773193 
	C595.541809,544.646484 593.420654,544.237427 591.013000,541.603455 
	C570.789124,519.478394 550.400757,497.503723 530.076843,475.469940 
	C529.304199,474.632263 528.684631,473.653320 527.537231,472.136841 
	C544.098022,456.169708 560.578857,440.279694 577.550903,423.916107 
	C600.771790,448.194305 623.637634,472.101227 646.751892,496.258667 
z"/>
</svg>